<svg xmlns="http://www.w3.org/2000/svg" xmlns:xlink="http://www.w3.org/1999/xlink" width="500" zoomAndPan="magnify" viewBox="0 0 375 374.999991" height="500" preserveAspectRatio="xMidYMid meet" version="1.0"><defs><clipPath id="6e874a8587"><path d="M 1.902344 1.902344 L 360 1.902344 L 360 360 L 1.902344 360 Z M 1.902344 1.902344 " clip-rule="nonzero"/></clipPath></defs><path fill="#ffd241" d="M 351.816406 180.632812 C 351.816406 183.433594 351.746094 186.234375 351.609375 189.03125 C 351.472656 191.828125 351.265625 194.621094 350.992188 197.410156 C 350.714844 200.199219 350.371094 202.976562 349.960938 205.75 C 349.550781 208.519531 349.070312 211.28125 348.527344 214.027344 C 347.980469 216.777344 347.367188 219.507812 346.683594 222.226562 C 346.003906 224.945312 345.257812 227.644531 344.445312 230.324219 C 343.628906 233.003906 342.75 235.664062 341.808594 238.300781 C 340.863281 240.9375 339.855469 243.550781 338.785156 246.140625 C 337.710938 248.730469 336.578125 251.289062 335.378906 253.820312 C 334.179688 256.355469 332.921875 258.855469 331.601562 261.328125 C 330.28125 263.796875 328.902344 266.234375 327.460938 268.636719 C 326.019531 271.039062 324.523438 273.40625 322.964844 275.734375 C 321.410156 278.066406 319.796875 280.355469 318.128906 282.605469 C 316.457031 284.855469 314.734375 287.0625 312.957031 289.230469 C 311.179688 291.394531 309.351562 293.515625 307.46875 295.589844 C 305.589844 297.667969 303.65625 299.695312 301.675781 301.675781 C 299.695312 303.65625 297.667969 305.589844 295.589844 307.46875 C 293.515625 309.351562 291.394531 311.179688 289.230469 312.957031 C 287.0625 314.734375 284.855469 316.457031 282.605469 318.128906 C 280.355469 319.796875 278.066406 321.410156 275.734375 322.964844 C 273.40625 324.523438 271.039062 326.019531 268.636719 327.460938 C 266.234375 328.902344 263.796875 330.28125 261.328125 331.601562 C 258.855469 332.921875 256.355469 334.179688 253.820312 335.378906 C 251.289062 336.578125 248.730469 337.710938 246.140625 338.785156 C 243.550781 339.855469 240.9375 340.863281 238.300781 341.808594 C 235.664062 342.75 233.003906 343.628906 230.324219 344.445312 C 227.644531 345.257812 224.945312 346.003906 222.226562 346.683594 C 219.507812 347.367188 216.777344 347.980469 214.027344 348.527344 C 211.28125 349.070312 208.519531 349.550781 205.75 349.960938 C 202.976562 350.371094 200.199219 350.714844 197.410156 350.992188 C 194.621094 351.265625 191.828125 351.472656 189.03125 351.609375 C 186.234375 351.746094 183.433594 351.816406 180.632812 351.816406 C 177.832031 351.816406 175.03125 351.746094 172.230469 351.609375 C 169.433594 351.472656 166.640625 351.265625 163.851562 350.992188 C 161.066406 350.714844 158.285156 350.371094 155.515625 349.960938 C 152.742188 349.550781 149.984375 349.070312 147.234375 348.527344 C 144.488281 347.980469 141.753906 347.367188 139.039062 346.683594 C 136.320312 346.003906 133.621094 345.257812 130.941406 344.445312 C 128.257812 343.628906 125.601562 342.75 122.960938 341.808594 C 120.324219 340.863281 117.710938 339.855469 115.121094 338.785156 C 112.535156 337.710938 109.972656 336.578125 107.441406 335.378906 C 104.910156 334.179688 102.40625 332.921875 99.9375 331.601562 C 97.464844 330.28125 95.027344 328.902344 92.625 327.460938 C 90.222656 326.019531 87.855469 324.523438 85.527344 322.964844 C 83.199219 321.410156 80.910156 319.796875 78.65625 318.128906 C 76.40625 316.457031 74.199219 314.734375 72.035156 312.957031 C 69.867188 311.179688 67.75 309.351562 65.671875 307.46875 C 63.597656 305.589844 61.566406 303.65625 59.585938 301.675781 C 57.605469 299.695312 55.675781 297.667969 53.792969 295.589844 C 51.914062 293.515625 50.082031 291.394531 48.304688 289.230469 C 46.527344 287.0625 44.804688 284.855469 43.136719 282.605469 C 41.46875 280.355469 39.855469 278.066406 38.296875 275.734375 C 36.742188 273.40625 35.242188 271.039062 33.804688 268.636719 C 32.363281 266.234375 30.984375 263.796875 29.660156 261.328125 C 28.339844 258.855469 27.082031 256.355469 25.882812 253.820312 C 24.6875 251.289062 23.550781 248.730469 22.480469 246.140625 C 21.40625 243.550781 20.398438 240.9375 19.457031 238.300781 C 18.511719 235.664062 17.632812 233.003906 16.820312 230.324219 C 16.007812 227.644531 15.257812 224.945312 14.578125 222.226562 C 13.898438 219.507812 13.285156 216.777344 12.738281 214.027344 C 12.191406 211.28125 11.710938 208.519531 11.300781 205.75 C 10.890625 202.976562 10.546875 200.199219 10.273438 197.410156 C 10 194.621094 9.792969 191.828125 9.65625 189.03125 C 9.515625 186.234375 9.449219 183.433594 9.449219 180.632812 C 9.449219 177.832031 9.515625 175.03125 9.65625 172.230469 C 9.792969 169.433594 10 166.640625 10.273438 163.851562 C 10.546875 161.066406 10.890625 158.285156 11.300781 155.515625 C 11.710938 152.742188 12.191406 149.984375 12.738281 147.234375 C 13.285156 144.488281 13.898438 141.753906 14.578125 139.039062 C 15.257812 136.320312 16.007812 133.621094 16.820312 130.941406 C 17.632812 128.257812 18.511719 125.601562 19.457031 122.960938 C 20.398438 120.324219 21.40625 117.710938 22.480469 115.121094 C 23.550781 112.535156 24.6875 109.972656 25.882812 107.441406 C 27.082031 104.910156 28.339844 102.40625 29.660156 99.9375 C 30.984375 97.464844 32.363281 95.027344 33.804688 92.625 C 35.242188 90.222656 36.742188 87.855469 38.296875 85.527344 C 39.855469 83.199219 41.46875 80.910156 43.136719 78.65625 C 44.804688 76.40625 46.527344 74.199219 48.304688 72.035156 C 50.082031 69.867188 51.914062 67.75 53.792969 65.671875 C 55.675781 63.597656 57.605469 61.566406 59.585938 59.585938 C 61.566406 57.605469 63.597656 55.675781 65.671875 53.792969 C 67.75 51.914062 69.867188 50.082031 72.035156 48.304688 C 74.199219 46.527344 76.40625 44.804688 78.65625 43.136719 C 80.910156 41.46875 83.199219 39.855469 85.527344 38.296875 C 87.855469 36.742188 90.222656 35.242188 92.625 33.804688 C 95.027344 32.363281 97.464844 30.984375 99.9375 29.660156 C 102.40625 28.339844 104.910156 27.082031 107.441406 25.882812 C 109.972656 24.6875 112.535156 23.550781 115.121094 22.480469 C 117.710938 21.40625 120.324219 20.398438 122.960938 19.457031 C 125.601562 18.511719 128.257812 17.632812 130.941406 16.820312 C 133.621094 16.007812 136.320312 15.257812 139.039062 14.578125 C 141.753906 13.898438 144.488281 13.285156 147.234375 12.738281 C 149.984375 12.191406 152.742188 11.710938 155.515625 11.300781 C 158.285156 10.890625 161.066406 10.546875 163.851562 10.273438 C 166.640625 10 169.433594 9.792969 172.230469 9.65625 C 175.03125 9.515625 177.832031 9.449219 180.632812 9.449219 C 183.433594 9.449219 186.234375 9.515625 189.03125 9.65625 C 191.828125 9.792969 194.621094 10 197.410156 10.273438 C 200.199219 10.546875 202.976562 10.890625 205.75 11.300781 C 208.519531 11.710938 211.28125 12.191406 214.027344 12.738281 C 216.777344 13.285156 219.507812 13.898438 222.226562 14.578125 C 224.945312 15.257812 227.644531 16.007812 230.324219 16.820312 C 233.003906 17.632812 235.664062 18.511719 238.300781 19.457031 C 240.9375 20.398438 243.550781 21.40625 246.140625 22.480469 C 248.730469 23.550781 251.289062 24.6875 253.820312 25.882812 C 256.355469 27.082031 258.855469 28.339844 261.328125 29.660156 C 263.796875 30.984375 266.234375 32.363281 268.636719 33.804688 C 271.039062 35.242188 273.40625 36.742188 275.734375 38.296875 C 278.066406 39.855469 280.355469 41.46875 282.605469 43.136719 C 284.855469 44.804688 287.0625 46.527344 289.230469 48.304688 C 291.394531 50.082031 293.515625 51.914062 295.589844 53.792969 C 297.667969 55.675781 299.695312 57.605469 301.675781 59.585938 C 303.65625 61.566406 305.589844 63.597656 307.46875 65.671875 C 309.351562 67.75 311.179688 69.867188 312.957031 72.035156 C 314.734375 74.199219 316.457031 76.40625 318.128906 78.65625 C 319.796875 80.910156 321.410156 83.199219 322.964844 85.527344 C 324.523438 87.855469 326.019531 90.222656 327.460938 92.625 C 328.902344 95.027344 330.28125 97.464844 331.601562 99.9375 C 332.921875 102.40625 334.179688 104.910156 335.378906 107.441406 C 336.578125 109.972656 337.710938 112.535156 338.785156 115.121094 C 339.855469 117.710938 340.863281 120.324219 341.808594 122.960938 C 342.75 125.601562 343.628906 128.257812 344.445312 130.941406 C 345.257812 133.621094 346.003906 136.320312 346.683594 139.039062 C 347.367188 141.753906 347.980469 144.488281 348.527344 147.234375 C 349.070312 149.984375 349.550781 152.742188 349.960938 155.515625 C 350.371094 158.285156 350.714844 161.066406 350.992188 163.851562 C 351.265625 166.640625 351.472656 169.433594 351.609375 172.230469 C 351.746094 175.03125 351.816406 177.832031 351.816406 180.632812 Z M 351.816406 180.632812 " fill-opacity="1" fill-rule="nonzero"/><path fill="#ffb028" d="M 325.800781 89.679688 C 359.558594 178.050781 315.472656 276.945312 227.101562 310.90625 C 150.644531 340.097656 64.257812 311.304688 20.769531 241.996094 C 54.527344 330.367188 153.625 374.652344 241.996094 340.695312 C 330.367188 306.734375 374.652344 207.839844 340.695312 119.464844 C 336.722656 109.140625 331.558594 99.011719 325.800781 89.679688 Z M 325.800781 89.679688 " fill-opacity="1" fill-rule="nonzero"/><g clip-path="url(#6e874a8587)"><path fill="#000000" d="M 180.632812 1.902344 C 81.933594 1.902344 1.902344 81.933594 1.902344 180.632812 C 1.902344 279.328125 81.933594 359.359375 180.632812 359.359375 C 279.328125 359.359375 359.359375 279.328125 359.359375 180.632812 C 359.164062 81.933594 279.328125 2.101562 180.632812 1.902344 Z M 180.632812 344.46875 C 90.074219 344.46875 16.796875 271.1875 16.796875 180.632812 C 16.796875 90.074219 90.074219 16.796875 180.632812 16.796875 C 271.1875 16.796875 344.46875 90.074219 344.46875 180.632812 C 344.269531 270.988281 270.988281 344.269531 180.632812 344.46875 Z M 180.632812 344.46875 " fill-opacity="1" fill-rule="nonzero"/></g><path fill="#000000" d="M 109.539062 150.050781 L 154.21875 127.808594 C 157.992188 126.019531 159.382812 121.453125 157.59375 117.878906 C 156.800781 116.488281 155.609375 115.296875 154.21875 114.5 L 109.539062 92.0625 L 102.785156 105.367188 L 134.164062 121.054688 L 102.785156 136.742188 Z M 109.539062 150.050781 " fill-opacity="1" fill-rule="nonzero"/><path fill="#000000" d="M 225.3125 91.265625 L 255.101562 91.265625 L 255.101562 150.84375 L 225.3125 150.84375 Z M 225.3125 91.265625 " fill-opacity="1" fill-rule="nonzero"/><path fill="#000000" d="M 180.632812 284.890625 C 135.355469 284.890625 98.8125 248.152344 98.8125 203.070312 L 83.917969 203.070312 C 83.917969 256.492188 127.210938 299.984375 180.832031 299.984375 C 234.449219 299.984375 277.742188 256.691406 277.742188 203.070312 L 262.847656 203.070312 C 262.449219 248.152344 225.910156 284.890625 180.632812 284.890625 Z M 180.632812 284.890625 " fill-opacity="1" fill-rule="nonzero"/></svg>